<?xml version="1.0" encoding="UTF-8" standalone="no"?>
<!DOCTYPE svg PUBLIC "-//W3C//DTD SVG 1.1//EN"
 "http://www.w3.org/Graphics/SVG/1.1/DTD/svg11.dtd">
<!-- Generated by graphviz version 2.43.0 (0)
 -->
<!-- Title: G Pages: 1 -->
<svg width="868pt" height="476pt"
 viewBox="0.00 0.00 867.50 476.00" xmlns="http://www.w3.org/2000/svg" xmlns:xlink="http://www.w3.org/1999/xlink">
<g id="graph0" class="graph" transform="scale(1 1) rotate(0) translate(4 472)">
<title>G</title>
<polygon fill="white" stroke="transparent" points="-4,4 -4,-472 863.5,-472 863.5,4 -4,4"/>
<!-- DataScraping.py -->
<g id="node1" class="node">
<title>DataScraping.py</title>
<polygon fill="none" stroke="green" points="746,-468 630,-468 630,-432 746,-432 746,-468"/>
<text text-anchor="middle" x="688" y="-446.3" font-family="Helvetica,Arial,sans-serif" font-size="14.00">DataScraping.py</text>
</g>
<!-- OpenRouteService*.py -->
<g id="node2" class="node">
<title>OpenRouteService*.py</title>
<polygon fill="none" stroke="green" points="765.5,-396 610.5,-396 610.5,-360 765.5,-360 765.5,-396"/>
<text text-anchor="middle" x="688" y="-374.3" font-family="Helvetica,Arial,sans-serif" font-size="14.00">OpenRouteService*.py</text>
</g>
<!-- DataScraping.py&#45;&gt;OpenRouteService*.py -->
<g id="edge1" class="edge">
<title>DataScraping.py&#45;&gt;OpenRouteService*.py</title>
<path fill="none" stroke="black" d="M688,-431.7C688,-423.98 688,-414.71 688,-406.11"/>
<polygon fill="black" stroke="black" points="691.5,-406.1 688,-396.1 684.5,-406.1 691.5,-406.1"/>
</g>
<!-- preprocessing.ipynb -->
<g id="node3" class="node">
<title>preprocessing.ipynb</title>
<polygon fill="none" stroke="black" points="756.5,-324 619.5,-324 619.5,-288 756.5,-288 756.5,-324"/>
<text text-anchor="middle" x="688" y="-302.3" font-family="Helvetica,Arial,sans-serif" font-size="14.00">preprocessing.ipynb</text>
</g>
<!-- OpenRouteService*.py&#45;&gt;preprocessing.ipynb -->
<g id="edge2" class="edge">
<title>OpenRouteService*.py&#45;&gt;preprocessing.ipynb</title>
<path fill="none" stroke="black" d="M688,-359.7C688,-351.98 688,-342.71 688,-334.11"/>
<polygon fill="black" stroke="black" points="691.5,-334.1 688,-324.1 684.5,-334.1 691.5,-334.1"/>
</g>
<!-- adding_ICSEA.ipynb -->
<g id="node11" class="node">
<title>adding_ICSEA.ipynb</title>
<polygon fill="none" stroke="black" points="759,-252 617,-252 617,-216 759,-216 759,-252"/>
<text text-anchor="middle" x="688" y="-230.3" font-family="Helvetica,Arial,sans-serif" font-size="14.00">adding_ICSEA.ipynb</text>
</g>
<!-- preprocessing.ipynb&#45;&gt;adding_ICSEA.ipynb -->
<g id="edge10" class="edge">
<title>preprocessing.ipynb&#45;&gt;adding_ICSEA.ipynb</title>
<path fill="none" stroke="black" d="M688,-287.7C688,-279.98 688,-270.71 688,-262.11"/>
<polygon fill="black" stroke="black" points="691.5,-262.1 688,-252.1 684.5,-262.1 691.5,-262.1"/>
</g>
<!-- popu_incomepredict.ipynb -->
<g id="node4" class="node">
<title>popu_incomepredict.ipynb</title>
<polygon fill="none" stroke="black" points="529.5,-396 354.5,-396 354.5,-360 529.5,-360 529.5,-396"/>
<text text-anchor="middle" x="442" y="-374.3" font-family="Helvetica,Arial,sans-serif" font-size="14.00">popu_incomepredict.ipynb</text>
</g>
<!-- transformSA2toSub.ipynb -->
<g id="node5" class="node">
<title>transformSA2toSub.ipynb</title>
<polygon fill="none" stroke="black" points="527.5,-324 356.5,-324 356.5,-288 527.5,-288 527.5,-324"/>
<text text-anchor="middle" x="442" y="-302.3" font-family="Helvetica,Arial,sans-serif" font-size="14.00">transformSA2toSub.ipynb</text>
</g>
<!-- popu_incomepredict.ipynb&#45;&gt;transformSA2toSub.ipynb -->
<g id="edge3" class="edge">
<title>popu_incomepredict.ipynb&#45;&gt;transformSA2toSub.ipynb</title>
<path fill="none" stroke="black" d="M442,-359.7C442,-351.98 442,-342.71 442,-334.11"/>
<polygon fill="black" stroke="black" points="445.5,-334.1 442,-324.1 438.5,-334.1 445.5,-334.1"/>
</g>
<!-- joinpopu&#45;income.ipynb -->
<g id="node6" class="node">
<title>joinpopu&#45;income.ipynb</title>
<polygon fill="none" stroke="black" points="455,-252 303,-252 303,-216 455,-216 455,-252"/>
<text text-anchor="middle" x="379" y="-230.3" font-family="Helvetica,Arial,sans-serif" font-size="14.00">joinpopu&#45;income.ipynb</text>
</g>
<!-- transformSA2toSub.ipynb&#45;&gt;joinpopu&#45;income.ipynb -->
<g id="edge4" class="edge">
<title>transformSA2toSub.ipynb&#45;&gt;joinpopu&#45;income.ipynb</title>
<path fill="none" stroke="black" d="M426.43,-287.7C418.8,-279.22 409.48,-268.86 401.12,-259.58"/>
<polygon fill="black" stroke="black" points="403.69,-257.2 394.39,-252.1 398.48,-261.88 403.69,-257.2"/>
</g>
<!-- dataforQ3.py -->
<g id="node8" class="node">
<title>dataforQ3.py</title>
<polygon fill="none" stroke="black" points="655.5,-180 560.5,-180 560.5,-144 655.5,-144 655.5,-180"/>
<text text-anchor="middle" x="608" y="-158.3" font-family="Helvetica,Arial,sans-serif" font-size="14.00">dataforQ3.py</text>
</g>
<!-- joinpopu&#45;income.ipynb&#45;&gt;dataforQ3.py -->
<g id="edge6" class="edge">
<title>joinpopu&#45;income.ipynb&#45;&gt;dataforQ3.py</title>
<path fill="none" stroke="black" d="M434.73,-215.97C469.82,-205.24 515.02,-191.42 550.46,-180.59"/>
<polygon fill="black" stroke="black" points="551.64,-183.89 560.18,-177.62 549.59,-177.19 551.64,-183.89"/>
</g>
<!-- engineer&#45;metrics.py -->
<g id="node9" class="node">
<title>engineer&#45;metrics.py</title>
<polygon fill="none" stroke="black" points="531,-180 395,-180 395,-144 531,-144 531,-180"/>
<text text-anchor="middle" x="463" y="-158.3" font-family="Helvetica,Arial,sans-serif" font-size="14.00">engineer&#45;metrics.py</text>
</g>
<!-- joinpopu&#45;income.ipynb&#45;&gt;engineer&#45;metrics.py -->
<g id="edge7" class="edge">
<title>joinpopu&#45;income.ipynb&#45;&gt;engineer&#45;metrics.py</title>
<path fill="none" stroke="black" d="M399.76,-215.7C410.24,-206.97 423.11,-196.24 434.5,-186.75"/>
<polygon fill="black" stroke="black" points="437.03,-189.19 442.47,-180.1 432.55,-183.82 437.03,-189.19"/>
</g>
<!-- historical_data.ipynb -->
<g id="node7" class="node">
<title>historical_data.ipynb</title>
<polygon fill="none" stroke="black" points="338,-324 198,-324 198,-288 338,-288 338,-324"/>
<text text-anchor="middle" x="268" y="-302.3" font-family="Helvetica,Arial,sans-serif" font-size="14.00">historical_data.ipynb</text>
</g>
<!-- historical_data.ipynb&#45;&gt;joinpopu&#45;income.ipynb -->
<g id="edge5" class="edge">
<title>historical_data.ipynb&#45;&gt;joinpopu&#45;income.ipynb</title>
<path fill="none" stroke="black" d="M295.15,-287.88C309.53,-278.81 327.38,-267.55 342.91,-257.76"/>
<polygon fill="black" stroke="black" points="345.15,-260.48 351.74,-252.19 341.42,-254.56 345.15,-260.48"/>
</g>
<!-- Q3.ipynb -->
<g id="node17" class="node">
<title>Q3.ipynb</title>
<polygon fill="none" stroke="black" points="836.5,-108 765.5,-108 765.5,-72 836.5,-72 836.5,-108"/>
<text text-anchor="middle" x="801" y="-86.3" font-family="Helvetica,Arial,sans-serif" font-size="14.00">Q3.ipynb</text>
</g>
<!-- dataforQ3.py&#45;&gt;Q3.ipynb -->
<g id="edge18" class="edge">
<title>dataforQ3.py&#45;&gt;Q3.ipynb</title>
<path fill="none" stroke="black" d="M655.76,-144.38C682.76,-134.9 717.36,-122.61 755.67,-108.45"/>
<polygon fill="black" stroke="black" points="757.33,-111.57 765.49,-104.81 754.9,-105.01 757.33,-111.57"/>
</g>
<!-- Q1&#45;modelling.ipynb -->
<g id="node12" class="node">
<title>Q1&#45;modelling.ipynb</title>
<polygon fill="none" stroke="black" points="604,-108 470,-108 470,-72 604,-72 604,-108"/>
<text text-anchor="middle" x="537" y="-86.3" font-family="Helvetica,Arial,sans-serif" font-size="14.00">Q1&#45;modelling.ipynb</text>
</g>
<!-- engineer&#45;metrics.py&#45;&gt;Q1&#45;modelling.ipynb -->
<g id="edge13" class="edge">
<title>engineer&#45;metrics.py&#45;&gt;Q1&#45;modelling.ipynb</title>
<path fill="none" stroke="black" d="M481.29,-143.7C490.43,-135.05 501.64,-124.45 511.6,-115.03"/>
<polygon fill="black" stroke="black" points="514.06,-117.52 518.92,-108.1 509.25,-112.43 514.06,-117.52"/>
</g>
<!-- Q1&#45;analysis.ipynb -->
<g id="node13" class="node">
<title>Q1&#45;analysis.ipynb</title>
<polygon fill="none" stroke="black" points="747.5,-108 622.5,-108 622.5,-72 747.5,-72 747.5,-108"/>
<text text-anchor="middle" x="685" y="-86.3" font-family="Helvetica,Arial,sans-serif" font-size="14.00">Q1&#45;analysis.ipynb</text>
</g>
<!-- engineer&#45;metrics.py&#45;&gt;Q1&#45;analysis.ipynb -->
<g id="edge14" class="edge">
<title>engineer&#45;metrics.py&#45;&gt;Q1&#45;analysis.ipynb</title>
<path fill="none" stroke="black" d="M517.02,-143.97C548.45,-134.06 588.23,-121.51 621.19,-111.12"/>
<polygon fill="black" stroke="black" points="622.25,-114.46 630.73,-108.11 620.14,-107.78 622.25,-114.46"/>
</g>
<!-- Q2&#45;modelling.ipynb -->
<g id="node14" class="node">
<title>Q2&#45;modelling.ipynb</title>
<polygon fill="none" stroke="black" points="134,-108 0,-108 0,-72 134,-72 134,-108"/>
<text text-anchor="middle" x="67" y="-86.3" font-family="Helvetica,Arial,sans-serif" font-size="14.00">Q2&#45;modelling.ipynb</text>
</g>
<!-- engineer&#45;metrics.py&#45;&gt;Q2&#45;modelling.ipynb -->
<g id="edge15" class="edge">
<title>engineer&#45;metrics.py&#45;&gt;Q2&#45;modelling.ipynb</title>
<path fill="none" stroke="black" d="M394.76,-150.83C332.12,-141.24 236.52,-125.95 144.17,-108.17"/>
<polygon fill="black" stroke="black" points="144.58,-104.69 134.09,-106.22 143.25,-111.56 144.58,-104.69"/>
</g>
<!-- Q2&#45;analysis.ipynb -->
<g id="node15" class="node">
<title>Q2&#45;analysis.ipynb</title>
<polygon fill="none" stroke="black" points="451.5,-108 326.5,-108 326.5,-72 451.5,-72 451.5,-108"/>
<text text-anchor="middle" x="389" y="-86.3" font-family="Helvetica,Arial,sans-serif" font-size="14.00">Q2&#45;analysis.ipynb</text>
</g>
<!-- engineer&#45;metrics.py&#45;&gt;Q2&#45;analysis.ipynb -->
<g id="edge16" class="edge">
<title>engineer&#45;metrics.py&#45;&gt;Q2&#45;analysis.ipynb</title>
<path fill="none" stroke="black" d="M444.71,-143.7C435.57,-135.05 424.36,-124.45 414.4,-115.03"/>
<polygon fill="black" stroke="black" points="416.75,-112.43 407.08,-108.1 411.94,-117.52 416.75,-112.43"/>
</g>
<!-- visualise&#45;on&#45;map.ipynb -->
<g id="node16" class="node">
<title>visualise&#45;on&#45;map.ipynb</title>
<polygon fill="none" stroke="black" points="308,-108 152,-108 152,-72 308,-72 308,-108"/>
<text text-anchor="middle" x="230" y="-86.3" font-family="Helvetica,Arial,sans-serif" font-size="14.00">visualise&#45;on&#45;map.ipynb</text>
</g>
<!-- engineer&#45;metrics.py&#45;&gt;visualise&#45;on&#45;map.ipynb -->
<g id="edge17" class="edge">
<title>engineer&#45;metrics.py&#45;&gt;visualise&#45;on&#45;map.ipynb</title>
<path fill="none" stroke="black" d="M406.3,-143.97C373.32,-134.06 331.57,-121.51 296.97,-111.12"/>
<polygon fill="black" stroke="black" points="297.54,-107.64 286.95,-108.11 295.52,-114.34 297.54,-107.64"/>
</g>
<!-- Crime_Rate.ipynb -->
<g id="node10" class="node">
<title>Crime_Rate.ipynb</title>
<polygon fill="none" stroke="black" points="598.5,-252 473.5,-252 473.5,-216 598.5,-216 598.5,-252"/>
<text text-anchor="middle" x="536" y="-230.3" font-family="Helvetica,Arial,sans-serif" font-size="14.00">Crime_Rate.ipynb</text>
</g>
<!-- Crime_Rate.ipynb&#45;&gt;dataforQ3.py -->
<g id="edge8" class="edge">
<title>Crime_Rate.ipynb&#45;&gt;dataforQ3.py</title>
<path fill="none" stroke="black" d="M553.8,-215.7C562.6,-207.14 573.38,-196.66 583,-187.3"/>
<polygon fill="black" stroke="black" points="585.68,-189.58 590.41,-180.1 580.8,-184.57 585.68,-189.58"/>
</g>
<!-- Crime_Rate.ipynb&#45;&gt;engineer&#45;metrics.py -->
<g id="edge9" class="edge">
<title>Crime_Rate.ipynb&#45;&gt;engineer&#45;metrics.py</title>
<path fill="none" stroke="black" d="M517.96,-215.7C508.94,-207.05 497.88,-196.45 488.06,-187.03"/>
<polygon fill="black" stroke="black" points="490.48,-184.5 480.84,-180.1 485.63,-189.55 490.48,-184.5"/>
</g>
<!-- adding_ICSEA.ipynb&#45;&gt;dataforQ3.py -->
<g id="edge11" class="edge">
<title>adding_ICSEA.ipynb&#45;&gt;dataforQ3.py</title>
<path fill="none" stroke="black" d="M668.22,-215.7C658.25,-206.97 645.99,-196.24 635.14,-186.75"/>
<polygon fill="black" stroke="black" points="637.38,-184.06 627.55,-180.1 632.77,-189.32 637.38,-184.06"/>
</g>
<!-- adding_ICSEA.ipynb&#45;&gt;engineer&#45;metrics.py -->
<g id="edge12" class="edge">
<title>adding_ICSEA.ipynb&#45;&gt;engineer&#45;metrics.py</title>
<path fill="none" stroke="black" d="M633.25,-215.97C601.4,-206.06 561.08,-193.51 527.67,-183.12"/>
<polygon fill="black" stroke="black" points="528.59,-179.74 518,-180.11 526.51,-186.42 528.59,-179.74"/>
</g>
<!-- summary_notebook.ipynb -->
<g id="node18" class="node">
<title>summary_notebook.ipynb</title>
<polygon fill="none" stroke="black" points="623.5,-36 450.5,-36 450.5,0 623.5,0 623.5,-36"/>
<text text-anchor="middle" x="537" y="-14.3" font-family="Helvetica,Arial,sans-serif" font-size="14.00">summary_notebook.ipynb</text>
</g>
<!-- Q1&#45;modelling.ipynb&#45;&gt;summary_notebook.ipynb -->
<g id="edge19" class="edge">
<title>Q1&#45;modelling.ipynb&#45;&gt;summary_notebook.ipynb</title>
<path fill="none" stroke="black" d="M537,-71.7C537,-63.98 537,-54.71 537,-46.11"/>
<polygon fill="black" stroke="black" points="540.5,-46.1 537,-36.1 533.5,-46.1 540.5,-46.1"/>
</g>
<!-- Q1&#45;analysis.ipynb&#45;&gt;summary_notebook.ipynb -->
<g id="edge20" class="edge">
<title>Q1&#45;analysis.ipynb&#45;&gt;summary_notebook.ipynb</title>
<path fill="none" stroke="black" d="M648.8,-71.88C628.74,-62.39 603.63,-50.51 582.29,-40.42"/>
<polygon fill="black" stroke="black" points="583.62,-37.18 573.09,-36.07 580.63,-43.51 583.62,-37.18"/>
</g>
<!-- Q2&#45;modelling.ipynb&#45;&gt;summary_notebook.ipynb -->
<g id="edge21" class="edge">
<title>Q2&#45;modelling.ipynb&#45;&gt;summary_notebook.ipynb</title>
<path fill="none" stroke="black" d="M134.07,-73.67C137.09,-73.08 140.07,-72.52 143,-72 243.83,-53.98 360.16,-39.04 440.14,-29.67"/>
<polygon fill="black" stroke="black" points="440.67,-33.13 450.2,-28.49 439.86,-26.17 440.67,-33.13"/>
</g>
<!-- Q2&#45;analysis.ipynb&#45;&gt;summary_notebook.ipynb -->
<g id="edge22" class="edge">
<title>Q2&#45;analysis.ipynb&#45;&gt;summary_notebook.ipynb</title>
<path fill="none" stroke="black" d="M425.2,-71.88C445.26,-62.39 470.37,-50.51 491.71,-40.42"/>
<polygon fill="black" stroke="black" points="493.37,-43.51 500.91,-36.07 490.38,-37.18 493.37,-43.51"/>
</g>
<!-- Q3.ipynb&#45;&gt;summary_notebook.ipynb -->
<g id="edge23" class="edge">
<title>Q3.ipynb&#45;&gt;summary_notebook.ipynb</title>
<path fill="none" stroke="black" d="M765.12,-74.69C762.39,-73.74 759.66,-72.83 757,-72 715.43,-59.02 668.6,-47.35 628.88,-38.28"/>
<polygon fill="black" stroke="black" points="629.46,-34.82 618.94,-36.03 627.92,-41.65 629.46,-34.82"/>
</g>
<!-- repo&#45;linter.py -->
<g id="node19" class="node">
<title>repo&#45;linter.py</title>
<polygon fill="none" stroke="black" points="859.5,-468 764.5,-468 764.5,-432 859.5,-432 859.5,-468"/>
<text text-anchor="middle" x="812" y="-446.3" font-family="Helvetica,Arial,sans-serif" font-size="14.00">repo&#45;linter.py</text>
</g>
</g>
</svg>
