<?xml version="1.0" encoding="UTF-8" standalone="no"?>
<!DOCTYPE svg PUBLIC "-//W3C//DTD SVG 1.1//EN"
 "http://www.w3.org/Graphics/SVG/1.1/DTD/svg11.dtd">
<!-- Generated by graphviz version 2.43.0 (0)
 -->
<!-- Title: G Pages: 1 -->
<svg width="933pt" height="476pt"
 viewBox="0.00 0.00 932.50 476.00" xmlns="http://www.w3.org/2000/svg" xmlns:xlink="http://www.w3.org/1999/xlink">
<g id="graph0" class="graph" transform="scale(1 1) rotate(0) translate(4 472)">
<title>G</title>
<polygon fill="white" stroke="transparent" points="-4,4 -4,-472 928.5,-472 928.5,4 -4,4"/>
<!-- scrape&#45;listings.py -->
<g id="node1" class="node">
<title>scrape&#45;listings.py</title>
<polygon fill="none" stroke="green" points="811,-468 689,-468 689,-432 811,-432 811,-468"/>
<text text-anchor="middle" x="750" y="-446.3" font-family="Helvetica,Arial,sans-serif" font-size="14.00">scrape&#45;listings.py</text>
</g>
<!-- open&#45;route&#45;service&#45;client*.py -->
<g id="node2" class="node">
<title>open&#45;route&#45;service&#45;client*.py</title>
<polygon fill="none" stroke="green" points="845,-396 655,-396 655,-360 845,-360 845,-396"/>
<text text-anchor="middle" x="750" y="-374.3" font-family="Helvetica,Arial,sans-serif" font-size="14.00">open&#45;route&#45;service&#45;client*.py</text>
</g>
<!-- scrape&#45;listings.py&#45;&gt;open&#45;route&#45;service&#45;client*.py -->
<g id="edge1" class="edge">
<title>scrape&#45;listings.py&#45;&gt;open&#45;route&#45;service&#45;client*.py</title>
<path fill="none" stroke="black" d="M750,-431.7C750,-423.98 750,-414.71 750,-406.11"/>
<polygon fill="black" stroke="black" points="753.5,-406.1 750,-396.1 746.5,-406.1 753.5,-406.1"/>
</g>
<!-- process&#45;listings.ipynb -->
<g id="node3" class="node">
<title>process&#45;listings.ipynb</title>
<polygon fill="none" stroke="black" points="823,-324 677,-324 677,-288 823,-288 823,-324"/>
<text text-anchor="middle" x="750" y="-302.3" font-family="Helvetica,Arial,sans-serif" font-size="14.00">process&#45;listings.ipynb</text>
</g>
<!-- open&#45;route&#45;service&#45;client*.py&#45;&gt;process&#45;listings.ipynb -->
<g id="edge2" class="edge">
<title>open&#45;route&#45;service&#45;client*.py&#45;&gt;process&#45;listings.ipynb</title>
<path fill="none" stroke="black" d="M750,-359.7C750,-351.98 750,-342.71 750,-334.11"/>
<polygon fill="black" stroke="black" points="753.5,-334.1 750,-324.1 746.5,-334.1 753.5,-334.1"/>
</g>
<!-- add&#45;ICSEA.ipynb -->
<g id="node11" class="node">
<title>add&#45;ICSEA.ipynb</title>
<polygon fill="none" stroke="black" points="810.5,-252 689.5,-252 689.5,-216 810.5,-216 810.5,-252"/>
<text text-anchor="middle" x="750" y="-230.3" font-family="Helvetica,Arial,sans-serif" font-size="14.00">add&#45;ICSEA.ipynb</text>
</g>
<!-- process&#45;listings.ipynb&#45;&gt;add&#45;ICSEA.ipynb -->
<g id="edge10" class="edge">
<title>process&#45;listings.ipynb&#45;&gt;add&#45;ICSEA.ipynb</title>
<path fill="none" stroke="black" d="M750,-287.7C750,-279.98 750,-270.71 750,-262.11"/>
<polygon fill="black" stroke="black" points="753.5,-262.1 750,-252.1 746.5,-262.1 753.5,-262.1"/>
</g>
<!-- predict&#45;population&#45;income.ipynb -->
<g id="node4" class="node">
<title>predict&#45;population&#45;income.ipynb</title>
<polygon fill="none" stroke="black" points="554.5,-396 345.5,-396 345.5,-360 554.5,-360 554.5,-396"/>
<text text-anchor="middle" x="450" y="-374.3" font-family="Helvetica,Arial,sans-serif" font-size="14.00">predict&#45;population&#45;income.ipynb</text>
</g>
<!-- transform&#45;SA2&#45;to&#45;suburb.ipynb -->
<g id="node5" class="node">
<title>transform&#45;SA2&#45;to&#45;suburb.ipynb</title>
<polygon fill="none" stroke="black" points="551,-324 349,-324 349,-288 551,-288 551,-324"/>
<text text-anchor="middle" x="450" y="-302.3" font-family="Helvetica,Arial,sans-serif" font-size="14.00">transform&#45;SA2&#45;to&#45;suburb.ipynb</text>
</g>
<!-- predict&#45;population&#45;income.ipynb&#45;&gt;transform&#45;SA2&#45;to&#45;suburb.ipynb -->
<g id="edge3" class="edge">
<title>predict&#45;population&#45;income.ipynb&#45;&gt;transform&#45;SA2&#45;to&#45;suburb.ipynb</title>
<path fill="none" stroke="black" d="M450,-359.7C450,-351.98 450,-342.71 450,-334.11"/>
<polygon fill="black" stroke="black" points="453.5,-334.1 450,-324.1 446.5,-334.1 453.5,-334.1"/>
</g>
<!-- merge&#45;rent&#45;population&#45;income.ipynb -->
<g id="node6" class="node">
<title>merge&#45;rent&#45;population&#45;income.ipynb</title>
<polygon fill="none" stroke="black" points="486,-252 250,-252 250,-216 486,-216 486,-252"/>
<text text-anchor="middle" x="368" y="-230.3" font-family="Helvetica,Arial,sans-serif" font-size="14.00">merge&#45;rent&#45;population&#45;income.ipynb</text>
</g>
<!-- transform&#45;SA2&#45;to&#45;suburb.ipynb&#45;&gt;merge&#45;rent&#45;population&#45;income.ipynb -->
<g id="edge4" class="edge">
<title>transform&#45;SA2&#45;to&#45;suburb.ipynb&#45;&gt;merge&#45;rent&#45;population&#45;income.ipynb</title>
<path fill="none" stroke="black" d="M429.73,-287.7C419.5,-278.97 406.94,-268.24 395.82,-258.75"/>
<polygon fill="black" stroke="black" points="397.91,-255.94 388.04,-252.1 393.37,-261.26 397.91,-255.94"/>
</g>
<!-- engineer&#45;metrics&#45;Q3.py -->
<g id="node8" class="node">
<title>engineer&#45;metrics&#45;Q3.py</title>
<polygon fill="none" stroke="black" points="749,-180 589,-180 589,-144 749,-144 749,-180"/>
<text text-anchor="middle" x="669" y="-158.3" font-family="Helvetica,Arial,sans-serif" font-size="14.00">engineer&#45;metrics&#45;Q3.py</text>
</g>
<!-- merge&#45;rent&#45;population&#45;income.ipynb&#45;&gt;engineer&#45;metrics&#45;Q3.py -->
<g id="edge6" class="edge">
<title>merge&#45;rent&#45;population&#45;income.ipynb&#45;&gt;engineer&#45;metrics&#45;Q3.py</title>
<path fill="none" stroke="black" d="M441.25,-215.97C484.94,-205.8 540.55,-192.87 585.88,-182.33"/>
<polygon fill="black" stroke="black" points="586.74,-185.72 595.68,-180.05 585.15,-178.91 586.74,-185.72"/>
</g>
<!-- engineer&#45;metrics&#45;Q1&#45;Q2.py -->
<g id="node9" class="node">
<title>engineer&#45;metrics&#45;Q1&#45;Q2.py</title>
<polygon fill="none" stroke="black" points="556,-180 372,-180 372,-144 556,-144 556,-180"/>
<text text-anchor="middle" x="464" y="-158.3" font-family="Helvetica,Arial,sans-serif" font-size="14.00">engineer&#45;metrics&#45;Q1&#45;Q2.py</text>
</g>
<!-- merge&#45;rent&#45;population&#45;income.ipynb&#45;&gt;engineer&#45;metrics&#45;Q1&#45;Q2.py -->
<g id="edge7" class="edge">
<title>merge&#45;rent&#45;population&#45;income.ipynb&#45;&gt;engineer&#45;metrics&#45;Q1&#45;Q2.py</title>
<path fill="none" stroke="black" d="M391.73,-215.7C403.94,-206.8 418.99,-195.82 432.18,-186.2"/>
<polygon fill="black" stroke="black" points="434.52,-188.82 440.54,-180.1 430.4,-183.17 434.52,-188.82"/>
</g>
<!-- process&#45;historical&#45;rents.ipynb -->
<g id="node7" class="node">
<title>process&#45;historical&#45;rents.ipynb</title>
<polygon fill="none" stroke="black" points="331,-324 139,-324 139,-288 331,-288 331,-324"/>
<text text-anchor="middle" x="235" y="-302.3" font-family="Helvetica,Arial,sans-serif" font-size="14.00">process&#45;historical&#45;rents.ipynb</text>
</g>
<!-- process&#45;historical&#45;rents.ipynb&#45;&gt;merge&#45;rent&#45;population&#45;income.ipynb -->
<g id="edge5" class="edge">
<title>process&#45;historical&#45;rents.ipynb&#45;&gt;merge&#45;rent&#45;population&#45;income.ipynb</title>
<path fill="none" stroke="black" d="M267.54,-287.88C285.25,-278.55 307.35,-266.92 326.32,-256.94"/>
<polygon fill="black" stroke="black" points="328.12,-259.94 335.34,-252.19 324.86,-253.75 328.12,-259.94"/>
</g>
<!-- Q3.ipynb -->
<g id="node17" class="node">
<title>Q3.ipynb</title>
<polygon fill="none" stroke="black" points="837.5,-108 766.5,-108 766.5,-72 837.5,-72 837.5,-108"/>
<text text-anchor="middle" x="802" y="-86.3" font-family="Helvetica,Arial,sans-serif" font-size="14.00">Q3.ipynb</text>
</g>
<!-- engineer&#45;metrics&#45;Q3.py&#45;&gt;Q3.ipynb -->
<g id="edge18" class="edge">
<title>engineer&#45;metrics&#45;Q3.py&#45;&gt;Q3.ipynb</title>
<path fill="none" stroke="black" d="M701.54,-143.88C719.25,-134.55 741.35,-122.92 760.32,-112.94"/>
<polygon fill="black" stroke="black" points="762.12,-115.94 769.34,-108.19 758.86,-109.75 762.12,-115.94"/>
</g>
<!-- Q1&#45;modelling.ipynb -->
<g id="node12" class="node">
<title>Q1&#45;modelling.ipynb</title>
<polygon fill="none" stroke="black" points="605,-108 471,-108 471,-72 605,-72 605,-108"/>
<text text-anchor="middle" x="538" y="-86.3" font-family="Helvetica,Arial,sans-serif" font-size="14.00">Q1&#45;modelling.ipynb</text>
</g>
<!-- engineer&#45;metrics&#45;Q1&#45;Q2.py&#45;&gt;Q1&#45;modelling.ipynb -->
<g id="edge13" class="edge">
<title>engineer&#45;metrics&#45;Q1&#45;Q2.py&#45;&gt;Q1&#45;modelling.ipynb</title>
<path fill="none" stroke="black" d="M482.29,-143.7C491.43,-135.05 502.64,-124.45 512.6,-115.03"/>
<polygon fill="black" stroke="black" points="515.06,-117.52 519.92,-108.1 510.25,-112.43 515.06,-117.52"/>
</g>
<!-- Q1&#45;analysis.ipynb -->
<g id="node13" class="node">
<title>Q1&#45;analysis.ipynb</title>
<polygon fill="none" stroke="black" points="748.5,-108 623.5,-108 623.5,-72 748.5,-72 748.5,-108"/>
<text text-anchor="middle" x="686" y="-86.3" font-family="Helvetica,Arial,sans-serif" font-size="14.00">Q1&#45;analysis.ipynb</text>
</g>
<!-- engineer&#45;metrics&#45;Q1&#45;Q2.py&#45;&gt;Q1&#45;analysis.ipynb -->
<g id="edge14" class="edge">
<title>engineer&#45;metrics&#45;Q1&#45;Q2.py&#45;&gt;Q1&#45;analysis.ipynb</title>
<path fill="none" stroke="black" d="M518.02,-143.97C549.45,-134.06 589.23,-121.51 622.19,-111.12"/>
<polygon fill="black" stroke="black" points="623.25,-114.46 631.73,-108.11 621.14,-107.78 623.25,-114.46"/>
</g>
<!-- Q2&#45;modelling.ipynb -->
<g id="node14" class="node">
<title>Q2&#45;modelling.ipynb</title>
<polygon fill="none" stroke="black" points="134,-108 0,-108 0,-72 134,-72 134,-108"/>
<text text-anchor="middle" x="67" y="-86.3" font-family="Helvetica,Arial,sans-serif" font-size="14.00">Q2&#45;modelling.ipynb</text>
</g>
<!-- engineer&#45;metrics&#45;Q1&#45;Q2.py&#45;&gt;Q2&#45;modelling.ipynb -->
<g id="edge15" class="edge">
<title>engineer&#45;metrics&#45;Q1&#45;Q2.py&#45;&gt;Q2&#45;modelling.ipynb</title>
<path fill="none" stroke="black" d="M371.74,-147.18C309.96,-137.6 226.61,-124.03 144.14,-108.17"/>
<polygon fill="black" stroke="black" points="144.58,-104.69 134.09,-106.22 143.25,-111.56 144.58,-104.69"/>
</g>
<!-- Q2&#45;analysis.ipynb -->
<g id="node15" class="node">
<title>Q2&#45;analysis.ipynb</title>
<polygon fill="none" stroke="black" points="452.5,-108 327.5,-108 327.5,-72 452.5,-72 452.5,-108"/>
<text text-anchor="middle" x="390" y="-86.3" font-family="Helvetica,Arial,sans-serif" font-size="14.00">Q2&#45;analysis.ipynb</text>
</g>
<!-- engineer&#45;metrics&#45;Q1&#45;Q2.py&#45;&gt;Q2&#45;analysis.ipynb -->
<g id="edge16" class="edge">
<title>engineer&#45;metrics&#45;Q1&#45;Q2.py&#45;&gt;Q2&#45;analysis.ipynb</title>
<path fill="none" stroke="black" d="M445.71,-143.7C436.57,-135.05 425.36,-124.45 415.4,-115.03"/>
<polygon fill="black" stroke="black" points="417.75,-112.43 408.08,-108.1 412.94,-117.52 417.75,-112.43"/>
</g>
<!-- map&#45;visualisation.ipynb -->
<g id="node16" class="node">
<title>map&#45;visualisation.ipynb</title>
<polygon fill="none" stroke="black" points="310,-108 152,-108 152,-72 310,-72 310,-108"/>
<text text-anchor="middle" x="231" y="-86.3" font-family="Helvetica,Arial,sans-serif" font-size="14.00">map&#45;visualisation.ipynb</text>
</g>
<!-- engineer&#45;metrics&#45;Q1&#45;Q2.py&#45;&gt;map&#45;visualisation.ipynb -->
<g id="edge17" class="edge">
<title>engineer&#45;metrics&#45;Q1&#45;Q2.py&#45;&gt;map&#45;visualisation.ipynb</title>
<path fill="none" stroke="black" d="M407.3,-143.97C374.32,-134.06 332.57,-121.51 297.97,-111.12"/>
<polygon fill="black" stroke="black" points="298.54,-107.64 287.95,-108.11 296.52,-114.34 298.54,-107.64"/>
</g>
<!-- process&#45;crime&#45;rate.ipynb -->
<g id="node10" class="node">
<title>process&#45;crime&#45;rate.ipynb</title>
<polygon fill="none" stroke="black" points="671.5,-252 504.5,-252 504.5,-216 671.5,-216 671.5,-252"/>
<text text-anchor="middle" x="588" y="-230.3" font-family="Helvetica,Arial,sans-serif" font-size="14.00">process&#45;crime&#45;rate.ipynb</text>
</g>
<!-- process&#45;crime&#45;rate.ipynb&#45;&gt;engineer&#45;metrics&#45;Q3.py -->
<g id="edge8" class="edge">
<title>process&#45;crime&#45;rate.ipynb&#45;&gt;engineer&#45;metrics&#45;Q3.py</title>
<path fill="none" stroke="black" d="M608.02,-215.7C618.13,-206.97 630.54,-196.24 641.52,-186.75"/>
<polygon fill="black" stroke="black" points="643.93,-189.29 649.21,-180.1 639.35,-183.99 643.93,-189.29"/>
</g>
<!-- process&#45;crime&#45;rate.ipynb&#45;&gt;engineer&#45;metrics&#45;Q1&#45;Q2.py -->
<g id="edge9" class="edge">
<title>process&#45;crime&#45;rate.ipynb&#45;&gt;engineer&#45;metrics&#45;Q1&#45;Q2.py</title>
<path fill="none" stroke="black" d="M557.67,-215.88C541.3,-206.64 520.92,-195.13 503.35,-185.21"/>
<polygon fill="black" stroke="black" points="504.88,-182.06 494.45,-180.19 501.44,-188.15 504.88,-182.06"/>
</g>
<!-- add&#45;ICSEA.ipynb&#45;&gt;engineer&#45;metrics&#45;Q3.py -->
<g id="edge11" class="edge">
<title>add&#45;ICSEA.ipynb&#45;&gt;engineer&#45;metrics&#45;Q3.py</title>
<path fill="none" stroke="black" d="M729.98,-215.7C719.87,-206.97 707.46,-196.24 696.48,-186.75"/>
<polygon fill="black" stroke="black" points="698.65,-183.99 688.79,-180.1 694.07,-189.29 698.65,-183.99"/>
</g>
<!-- add&#45;ICSEA.ipynb&#45;&gt;engineer&#45;metrics&#45;Q1&#45;Q2.py -->
<g id="edge12" class="edge">
<title>add&#45;ICSEA.ipynb&#45;&gt;engineer&#45;metrics&#45;Q1&#45;Q2.py</title>
<path fill="none" stroke="black" d="M689.35,-218.15C646.88,-207.76 589.71,-193.77 543.59,-182.48"/>
<polygon fill="black" stroke="black" points="544.17,-179.02 533.62,-180.04 542.5,-185.82 544.17,-179.02"/>
</g>
<!-- summary&#45;notebook.ipynb -->
<g id="node18" class="node">
<title>summary&#45;notebook.ipynb</title>
<polygon fill="none" stroke="black" points="623,-36 453,-36 453,0 623,0 623,-36"/>
<text text-anchor="middle" x="538" y="-14.3" font-family="Helvetica,Arial,sans-serif" font-size="14.00">summary&#45;notebook.ipynb</text>
</g>
<!-- Q1&#45;modelling.ipynb&#45;&gt;summary&#45;notebook.ipynb -->
<g id="edge19" class="edge">
<title>Q1&#45;modelling.ipynb&#45;&gt;summary&#45;notebook.ipynb</title>
<path fill="none" stroke="black" d="M538,-71.7C538,-63.98 538,-54.71 538,-46.11"/>
<polygon fill="black" stroke="black" points="541.5,-46.1 538,-36.1 534.5,-46.1 541.5,-46.1"/>
</g>
<!-- Q1&#45;analysis.ipynb&#45;&gt;summary&#45;notebook.ipynb -->
<g id="edge20" class="edge">
<title>Q1&#45;analysis.ipynb&#45;&gt;summary&#45;notebook.ipynb</title>
<path fill="none" stroke="black" d="M649.8,-71.88C629.74,-62.39 604.63,-50.51 583.29,-40.42"/>
<polygon fill="black" stroke="black" points="584.62,-37.18 574.09,-36.07 581.63,-43.51 584.62,-37.18"/>
</g>
<!-- Q2&#45;modelling.ipynb&#45;&gt;summary&#45;notebook.ipynb -->
<g id="edge21" class="edge">
<title>Q2&#45;modelling.ipynb&#45;&gt;summary&#45;notebook.ipynb</title>
<path fill="none" stroke="black" d="M134.07,-73.67C137.09,-73.08 140.07,-72.52 143,-72 244.9,-53.8 362.59,-38.77 442.83,-29.43"/>
<polygon fill="black" stroke="black" points="443.38,-32.88 452.91,-28.26 442.58,-25.93 443.38,-32.88"/>
</g>
<!-- Q2&#45;analysis.ipynb&#45;&gt;summary&#45;notebook.ipynb -->
<g id="edge22" class="edge">
<title>Q2&#45;analysis.ipynb&#45;&gt;summary&#45;notebook.ipynb</title>
<path fill="none" stroke="black" d="M426.2,-71.88C446.26,-62.39 471.37,-50.51 492.71,-40.42"/>
<polygon fill="black" stroke="black" points="494.37,-43.51 501.91,-36.07 491.38,-37.18 494.37,-43.51"/>
</g>
<!-- Q3.ipynb&#45;&gt;summary&#45;notebook.ipynb -->
<g id="edge23" class="edge">
<title>Q3.ipynb&#45;&gt;summary&#45;notebook.ipynb</title>
<path fill="none" stroke="black" d="M766.12,-74.69C763.39,-73.74 760.66,-72.83 758,-72 716.43,-59.02 669.6,-47.35 629.88,-38.28"/>
<polygon fill="black" stroke="black" points="630.46,-34.82 619.94,-36.03 628.92,-41.65 630.46,-34.82"/>
</g>
<!-- repo&#45;linter.py -->
<g id="node19" class="node">
<title>repo&#45;linter.py</title>
<polygon fill="none" stroke="black" points="924.5,-468 829.5,-468 829.5,-432 924.5,-432 924.5,-468"/>
<text text-anchor="middle" x="877" y="-446.3" font-family="Helvetica,Arial,sans-serif" font-size="14.00">repo&#45;linter.py</text>
</g>
</g>
</svg>
