<?xml version="1.0" encoding="UTF-8" standalone="no"?>
<!DOCTYPE svg PUBLIC "-//W3C//DTD SVG 1.1//EN"
 "http://www.w3.org/Graphics/SVG/1.1/DTD/svg11.dtd">
<!-- Generated by graphviz version 2.43.0 (0)
 -->
<!-- Title: mygraph Pages: 1 -->
<svg width="1081pt" height="404pt"
 viewBox="0.00 0.00 1081.00 404.00" xmlns="http://www.w3.org/2000/svg" xmlns:xlink="http://www.w3.org/1999/xlink">
<g id="graph0" class="graph" transform="scale(1 1) rotate(0) translate(4 400)">
<title>mygraph</title>
<polygon fill="white" stroke="transparent" points="-4,4 -4,-400 1077,-400 1077,4 -4,4"/>
<!-- popu_incomepredict.ipynb -->
<g id="node1" class="node">
<title>popu_incomepredict.ipynb</title>
<polygon fill="none" stroke="black" points="653,-396 478,-396 478,-360 653,-360 653,-396"/>
<text text-anchor="middle" x="565.5" y="-374.3" font-family="Helvetica,Arial,sans-serif" font-size="14.00">popu_incomepredict.ipynb</text>
</g>
<!-- transformSA2toSub.ipynb -->
<g id="node2" class="node">
<title>transformSA2toSub.ipynb</title>
<polygon fill="none" stroke="black" points="651,-324 480,-324 480,-288 651,-288 651,-324"/>
<text text-anchor="middle" x="565.5" y="-302.3" font-family="Helvetica,Arial,sans-serif" font-size="14.00">transformSA2toSub.ipynb</text>
</g>
<!-- popu_incomepredict.ipynb&#45;&gt;transformSA2toSub.ipynb -->
<g id="edge1" class="edge">
<title>popu_incomepredict.ipynb&#45;&gt;transformSA2toSub.ipynb</title>
<path fill="none" stroke="black" d="M565.5,-359.7C565.5,-351.98 565.5,-342.71 565.5,-334.11"/>
<polygon fill="black" stroke="black" points="569,-334.1 565.5,-324.1 562,-334.1 569,-334.1"/>
</g>
<!-- joinpopu&#45;income.ipynb -->
<g id="node3" class="node">
<title>joinpopu&#45;income.ipynb</title>
<polygon fill="none" stroke="black" points="572.5,-252 420.5,-252 420.5,-216 572.5,-216 572.5,-252"/>
<text text-anchor="middle" x="496.5" y="-230.3" font-family="Helvetica,Arial,sans-serif" font-size="14.00">joinpopu&#45;income.ipynb</text>
</g>
<!-- transformSA2toSub.ipynb&#45;&gt;joinpopu&#45;income.ipynb -->
<g id="edge2" class="edge">
<title>transformSA2toSub.ipynb&#45;&gt;joinpopu&#45;income.ipynb</title>
<path fill="none" stroke="black" d="M548.44,-287.7C540,-279.14 529.68,-268.66 520.46,-259.3"/>
<polygon fill="black" stroke="black" points="522.87,-256.77 513.36,-252.1 517.89,-261.68 522.87,-256.77"/>
</g>
<!-- dataforQ3.py -->
<g id="node5" class="node">
<title>dataforQ3.py</title>
<polygon fill="none" stroke="black" points="773,-180 678,-180 678,-144 773,-144 773,-180"/>
<text text-anchor="middle" x="725.5" y="-158.3" font-family="Helvetica,Arial,sans-serif" font-size="14.00">dataforQ3.py</text>
</g>
<!-- joinpopu&#45;income.ipynb&#45;&gt;dataforQ3.py -->
<g id="edge4" class="edge">
<title>joinpopu&#45;income.ipynb&#45;&gt;dataforQ3.py</title>
<path fill="none" stroke="black" d="M552.23,-215.97C587.32,-205.24 632.52,-191.42 667.96,-180.59"/>
<polygon fill="black" stroke="black" points="669.14,-183.89 677.68,-177.62 667.09,-177.19 669.14,-183.89"/>
</g>
<!-- engineer&#45;metrics.py -->
<g id="node6" class="node">
<title>engineer&#45;metrics.py</title>
<polygon fill="none" stroke="black" points="648.5,-180 512.5,-180 512.5,-144 648.5,-144 648.5,-180"/>
<text text-anchor="middle" x="580.5" y="-158.3" font-family="Helvetica,Arial,sans-serif" font-size="14.00">engineer&#45;metrics.py</text>
</g>
<!-- joinpopu&#45;income.ipynb&#45;&gt;engineer&#45;metrics.py -->
<g id="edge5" class="edge">
<title>joinpopu&#45;income.ipynb&#45;&gt;engineer&#45;metrics.py</title>
<path fill="none" stroke="black" d="M517.26,-215.7C527.74,-206.97 540.61,-196.24 552,-186.75"/>
<polygon fill="black" stroke="black" points="554.53,-189.19 559.97,-180.1 550.05,-183.82 554.53,-189.19"/>
</g>
<!-- historical_data.ipynb -->
<g id="node4" class="node">
<title>historical_data.ipynb</title>
<polygon fill="none" stroke="black" points="461.5,-324 321.5,-324 321.5,-288 461.5,-288 461.5,-324"/>
<text text-anchor="middle" x="391.5" y="-302.3" font-family="Helvetica,Arial,sans-serif" font-size="14.00">historical_data.ipynb</text>
</g>
<!-- historical_data.ipynb&#45;&gt;joinpopu&#45;income.ipynb -->
<g id="edge3" class="edge">
<title>historical_data.ipynb&#45;&gt;joinpopu&#45;income.ipynb</title>
<path fill="none" stroke="black" d="M417.19,-287.88C430.79,-278.81 447.67,-267.55 462.36,-257.76"/>
<polygon fill="black" stroke="black" points="464.34,-260.65 470.72,-252.19 460.45,-254.82 464.34,-260.65"/>
</g>
<!-- Q3.ipynb -->
<g id="node15" class="node">
<title>Q3.ipynb</title>
<polygon fill="none" stroke="black" points="1073,-108 1002,-108 1002,-72 1073,-72 1073,-108"/>
<text text-anchor="middle" x="1037.5" y="-86.3" font-family="Helvetica,Arial,sans-serif" font-size="14.00">Q3.ipynb</text>
</g>
<!-- dataforQ3.py&#45;&gt;Q3.ipynb -->
<g id="edge16" class="edge">
<title>dataforQ3.py&#45;&gt;Q3.ipynb</title>
<path fill="none" stroke="black" d="M773.05,-154.15C824.99,-146.11 910.63,-131.2 991.78,-108.27"/>
<polygon fill="black" stroke="black" points="993.01,-111.56 1001.66,-105.43 991.08,-104.83 993.01,-111.56"/>
</g>
<!-- question&#45;one&#45;modelling.ipynb -->
<g id="node10" class="node">
<title>question&#45;one&#45;modelling.ipynb</title>
<polygon fill="none" stroke="black" points="781.5,-108 587.5,-108 587.5,-72 781.5,-72 781.5,-108"/>
<text text-anchor="middle" x="684.5" y="-86.3" font-family="Helvetica,Arial,sans-serif" font-size="14.00">question&#45;one&#45;modelling.ipynb</text>
</g>
<!-- engineer&#45;metrics.py&#45;&gt;question&#45;one&#45;modelling.ipynb -->
<g id="edge11" class="edge">
<title>engineer&#45;metrics.py&#45;&gt;question&#45;one&#45;modelling.ipynb</title>
<path fill="none" stroke="black" d="M605.94,-143.88C619.29,-134.89 635.82,-123.76 650.28,-114.03"/>
<polygon fill="black" stroke="black" points="652.62,-116.68 658.96,-108.19 648.71,-110.87 652.62,-116.68"/>
</g>
<!-- question&#45;one&#45;analysis.ipynb -->
<g id="node11" class="node">
<title>question&#45;one&#45;analysis.ipynb</title>
<polygon fill="none" stroke="black" points="984,-108 799,-108 799,-72 984,-72 984,-108"/>
<text text-anchor="middle" x="891.5" y="-86.3" font-family="Helvetica,Arial,sans-serif" font-size="14.00">question&#45;one&#45;analysis.ipynb</text>
</g>
<!-- engineer&#45;metrics.py&#45;&gt;question&#45;one&#45;analysis.ipynb -->
<g id="edge12" class="edge">
<title>engineer&#45;metrics.py&#45;&gt;question&#45;one&#45;analysis.ipynb</title>
<path fill="none" stroke="black" d="M648.75,-145.64C694.92,-135.25 756.26,-121.44 805.73,-110.31"/>
<polygon fill="black" stroke="black" points="806.79,-113.65 815.78,-108.04 805.25,-106.83 806.79,-113.65"/>
</g>
<!-- question&#45;two&#45;modelling.ipynb -->
<g id="node12" class="node">
<title>question&#45;two&#45;modelling.ipynb</title>
<polygon fill="none" stroke="black" points="193,-108 0,-108 0,-72 193,-72 193,-108"/>
<text text-anchor="middle" x="96.5" y="-86.3" font-family="Helvetica,Arial,sans-serif" font-size="14.00">question&#45;two&#45;modelling.ipynb</text>
</g>
<!-- engineer&#45;metrics.py&#45;&gt;question&#45;two&#45;modelling.ipynb -->
<g id="edge13" class="edge">
<title>engineer&#45;metrics.py&#45;&gt;question&#45;two&#45;modelling.ipynb</title>
<path fill="none" stroke="black" d="M512.5,-151.88C438.93,-141.91 317.89,-125.25 203.26,-108.1"/>
<polygon fill="black" stroke="black" points="203.66,-104.62 193.25,-106.6 202.62,-111.54 203.66,-104.62"/>
</g>
<!-- question&#45;two&#45;analysis.ipynb -->
<g id="node13" class="node">
<title>question&#45;two&#45;analysis.ipynb</title>
<polygon fill="none" stroke="black" points="569,-108 386,-108 386,-72 569,-72 569,-108"/>
<text text-anchor="middle" x="477.5" y="-86.3" font-family="Helvetica,Arial,sans-serif" font-size="14.00">question&#45;two&#45;analysis.ipynb</text>
</g>
<!-- engineer&#45;metrics.py&#45;&gt;question&#45;two&#45;analysis.ipynb -->
<g id="edge14" class="edge">
<title>engineer&#45;metrics.py&#45;&gt;question&#45;two&#45;analysis.ipynb</title>
<path fill="none" stroke="black" d="M555.3,-143.88C542.09,-134.89 525.71,-123.76 511.39,-114.03"/>
<polygon fill="black" stroke="black" points="513.03,-110.92 502.79,-108.19 509.1,-116.71 513.03,-110.92"/>
</g>
<!-- visualise&#45;on&#45;map.ipynb -->
<g id="node14" class="node">
<title>visualise&#45;on&#45;map.ipynb</title>
<polygon fill="none" stroke="black" points="367.5,-108 211.5,-108 211.5,-72 367.5,-72 367.5,-108"/>
<text text-anchor="middle" x="289.5" y="-86.3" font-family="Helvetica,Arial,sans-serif" font-size="14.00">visualise&#45;on&#45;map.ipynb</text>
</g>
<!-- engineer&#45;metrics.py&#45;&gt;visualise&#45;on&#45;map.ipynb -->
<g id="edge15" class="edge">
<title>engineer&#45;metrics.py&#45;&gt;visualise&#45;on&#45;map.ipynb</title>
<path fill="none" stroke="black" d="M512.27,-144.59C469.79,-134.37 414.93,-121.17 370.28,-110.43"/>
<polygon fill="black" stroke="black" points="370.88,-106.98 360.34,-108.04 369.24,-113.78 370.88,-106.98"/>
</g>
<!-- Crime_Rate.ipynb -->
<g id="node7" class="node">
<title>Crime_Rate.ipynb</title>
<polygon fill="none" stroke="black" points="716,-252 591,-252 591,-216 716,-216 716,-252"/>
<text text-anchor="middle" x="653.5" y="-230.3" font-family="Helvetica,Arial,sans-serif" font-size="14.00">Crime_Rate.ipynb</text>
</g>
<!-- Crime_Rate.ipynb&#45;&gt;dataforQ3.py -->
<g id="edge6" class="edge">
<title>Crime_Rate.ipynb&#45;&gt;dataforQ3.py</title>
<path fill="none" stroke="black" d="M671.3,-215.7C680.1,-207.14 690.88,-196.66 700.5,-187.3"/>
<polygon fill="black" stroke="black" points="703.18,-189.58 707.91,-180.1 698.3,-184.57 703.18,-189.58"/>
</g>
<!-- Crime_Rate.ipynb&#45;&gt;engineer&#45;metrics.py -->
<g id="edge7" class="edge">
<title>Crime_Rate.ipynb&#45;&gt;engineer&#45;metrics.py</title>
<path fill="none" stroke="black" d="M635.46,-215.7C626.44,-207.05 615.38,-196.45 605.56,-187.03"/>
<polygon fill="black" stroke="black" points="607.98,-184.5 598.34,-180.1 603.13,-189.55 607.98,-184.5"/>
</g>
<!-- preprocessing.ipynb -->
<g id="node8" class="node">
<title>preprocessing.ipynb</title>
<polygon fill="none" stroke="black" points="874,-324 737,-324 737,-288 874,-288 874,-324"/>
<text text-anchor="middle" x="805.5" y="-302.3" font-family="Helvetica,Arial,sans-serif" font-size="14.00">preprocessing.ipynb</text>
</g>
<!-- adding_ICSEA.ipynb -->
<g id="node9" class="node">
<title>adding_ICSEA.ipynb</title>
<polygon fill="none" stroke="black" points="876.5,-252 734.5,-252 734.5,-216 876.5,-216 876.5,-252"/>
<text text-anchor="middle" x="805.5" y="-230.3" font-family="Helvetica,Arial,sans-serif" font-size="14.00">adding_ICSEA.ipynb</text>
</g>
<!-- preprocessing.ipynb&#45;&gt;adding_ICSEA.ipynb -->
<g id="edge8" class="edge">
<title>preprocessing.ipynb&#45;&gt;adding_ICSEA.ipynb</title>
<path fill="none" stroke="black" d="M805.5,-287.7C805.5,-279.98 805.5,-270.71 805.5,-262.11"/>
<polygon fill="black" stroke="black" points="809,-262.1 805.5,-252.1 802,-262.1 809,-262.1"/>
</g>
<!-- adding_ICSEA.ipynb&#45;&gt;dataforQ3.py -->
<g id="edge9" class="edge">
<title>adding_ICSEA.ipynb&#45;&gt;dataforQ3.py</title>
<path fill="none" stroke="black" d="M785.72,-215.7C775.75,-206.97 763.49,-196.24 752.64,-186.75"/>
<polygon fill="black" stroke="black" points="754.88,-184.06 745.05,-180.1 750.27,-189.32 754.88,-184.06"/>
</g>
<!-- adding_ICSEA.ipynb&#45;&gt;engineer&#45;metrics.py -->
<g id="edge10" class="edge">
<title>adding_ICSEA.ipynb&#45;&gt;engineer&#45;metrics.py</title>
<path fill="none" stroke="black" d="M750.75,-215.97C718.9,-206.06 678.58,-193.51 645.17,-183.12"/>
<polygon fill="black" stroke="black" points="646.09,-179.74 635.5,-180.11 644.01,-186.42 646.09,-179.74"/>
</g>
<!-- summary_notebook.ipynb -->
<g id="node16" class="node">
<title>summary_notebook.ipynb</title>
<polygon fill="none" stroke="black" points="771,-36 598,-36 598,0 771,0 771,-36"/>
<text text-anchor="middle" x="684.5" y="-14.3" font-family="Helvetica,Arial,sans-serif" font-size="14.00">summary_notebook.ipynb</text>
</g>
<!-- question&#45;one&#45;modelling.ipynb&#45;&gt;summary_notebook.ipynb -->
<g id="edge17" class="edge">
<title>question&#45;one&#45;modelling.ipynb&#45;&gt;summary_notebook.ipynb</title>
<path fill="none" stroke="black" d="M684.5,-71.7C684.5,-63.98 684.5,-54.71 684.5,-46.11"/>
<polygon fill="black" stroke="black" points="688,-46.1 684.5,-36.1 681,-46.1 688,-46.1"/>
</g>
<!-- question&#45;one&#45;analysis.ipynb&#45;&gt;summary_notebook.ipynb -->
<g id="edge18" class="edge">
<title>question&#45;one&#45;analysis.ipynb&#45;&gt;summary_notebook.ipynb</title>
<path fill="none" stroke="black" d="M841.13,-71.97C812.08,-62.14 775.37,-49.73 744.79,-39.39"/>
<polygon fill="black" stroke="black" points="745.69,-36 735.1,-36.11 743.45,-42.63 745.69,-36"/>
</g>
<!-- question&#45;two&#45;modelling.ipynb&#45;&gt;summary_notebook.ipynb -->
<g id="edge19" class="edge">
<title>question&#45;two&#45;modelling.ipynb&#45;&gt;summary_notebook.ipynb</title>
<path fill="none" stroke="black" d="M193.23,-73.28C196.36,-72.84 199.45,-72.41 202.5,-72 335.65,-54.01 490.12,-37.85 587.58,-28.23"/>
<polygon fill="black" stroke="black" points="588.1,-31.7 597.71,-27.24 587.41,-24.73 588.1,-31.7"/>
</g>
<!-- question&#45;two&#45;analysis.ipynb&#45;&gt;summary_notebook.ipynb -->
<g id="edge20" class="edge">
<title>question&#45;two&#45;analysis.ipynb&#45;&gt;summary_notebook.ipynb</title>
<path fill="none" stroke="black" d="M527.87,-71.97C556.92,-62.14 593.63,-49.73 624.21,-39.39"/>
<polygon fill="black" stroke="black" points="625.55,-42.63 633.9,-36.11 623.31,-36 625.55,-42.63"/>
</g>
<!-- Q3.ipynb&#45;&gt;summary_notebook.ipynb -->
<g id="edge21" class="edge">
<title>Q3.ipynb&#45;&gt;summary_notebook.ipynb</title>
<path fill="none" stroke="black" d="M1001.68,-74.49C998.93,-73.58 996.18,-72.74 993.5,-72 923.55,-52.69 842.64,-39.12 781.17,-30.55"/>
<polygon fill="black" stroke="black" points="781.47,-27.06 771.09,-29.16 780.52,-33.99 781.47,-27.06"/>
</g>
<!-- repo&#45;linter.py -->
<g id="node17" class="node">
<title>repo&#45;linter.py</title>
<polygon fill="none" stroke="black" points="766,-396 671,-396 671,-360 766,-360 766,-396"/>
<text text-anchor="middle" x="718.5" y="-374.3" font-family="Helvetica,Arial,sans-serif" font-size="14.00">repo&#45;linter.py</text>
</g>
</g>
</svg>
