<?xml version="1.0" encoding="UTF-8" standalone="no"?>
<!DOCTYPE svg PUBLIC "-//W3C//DTD SVG 1.1//EN"
 "http://www.w3.org/Graphics/SVG/1.1/DTD/svg11.dtd">
<!-- Generated by graphviz version 2.43.0 (0)
 -->
<!-- Title: mygraph Pages: 1 -->
<svg width="1272pt" height="332pt"
 viewBox="0.00 0.00 1272.00 332.00" xmlns="http://www.w3.org/2000/svg" xmlns:xlink="http://www.w3.org/1999/xlink">
<g id="graph0" class="graph" transform="scale(1 1) rotate(0) translate(4 328)">
<title>mygraph</title>
<polygon fill="white" stroke="transparent" points="-4,4 -4,-328 1268,-328 1268,4 -4,4"/>
<!-- popu_incomepredict.ipynb -->
<g id="node1" class="node">
<title>popu_incomepredict.ipynb</title>
<polygon fill="none" stroke="black" points="738,-324 563,-324 563,-288 738,-288 738,-324"/>
<text text-anchor="middle" x="650.5" y="-302.3" font-family="Helvetica,Arial,sans-serif" font-size="14.00">popu_incomepredict.ipynb</text>
</g>
<!-- transformSA2toSub.ipynb -->
<g id="node2" class="node">
<title>transformSA2toSub.ipynb</title>
<polygon fill="none" stroke="black" points="736,-252 565,-252 565,-216 736,-216 736,-252"/>
<text text-anchor="middle" x="650.5" y="-230.3" font-family="Helvetica,Arial,sans-serif" font-size="14.00">transformSA2toSub.ipynb</text>
</g>
<!-- popu_incomepredict.ipynb&#45;&gt;transformSA2toSub.ipynb -->
<g id="edge1" class="edge">
<title>popu_incomepredict.ipynb&#45;&gt;transformSA2toSub.ipynb</title>
<path fill="none" stroke="black" d="M650.5,-287.7C650.5,-279.98 650.5,-270.71 650.5,-262.11"/>
<polygon fill="black" stroke="black" points="654,-262.1 650.5,-252.1 647,-262.1 654,-262.1"/>
</g>
<!-- joinpopu&#45;income.ipynb -->
<g id="node3" class="node">
<title>joinpopu&#45;income.ipynb</title>
<polygon fill="none" stroke="black" points="813.5,-180 661.5,-180 661.5,-144 813.5,-144 813.5,-180"/>
<text text-anchor="middle" x="737.5" y="-158.3" font-family="Helvetica,Arial,sans-serif" font-size="14.00">joinpopu&#45;income.ipynb</text>
</g>
<!-- transformSA2toSub.ipynb&#45;&gt;joinpopu&#45;income.ipynb -->
<g id="edge2" class="edge">
<title>transformSA2toSub.ipynb&#45;&gt;joinpopu&#45;income.ipynb</title>
<path fill="none" stroke="black" d="M672.01,-215.7C682.96,-206.88 696.45,-196.03 708.32,-186.47"/>
<polygon fill="black" stroke="black" points="710.64,-189.1 716.24,-180.1 706.26,-183.65 710.64,-189.1"/>
</g>
<!-- dataforQ3.py -->
<g id="node5" class="node">
<title>dataforQ3.py</title>
<polygon fill="none" stroke="black" points="1091,-108 996,-108 996,-72 1091,-72 1091,-108"/>
<text text-anchor="middle" x="1043.5" y="-86.3" font-family="Helvetica,Arial,sans-serif" font-size="14.00">dataforQ3.py</text>
</g>
<!-- joinpopu&#45;income.ipynb&#45;&gt;dataforQ3.py -->
<g id="edge4" class="edge">
<title>joinpopu&#45;income.ipynb&#45;&gt;dataforQ3.py</title>
<path fill="none" stroke="black" d="M811.96,-143.97C865.59,-131.7 936.87,-115.39 986.11,-104.13"/>
<polygon fill="black" stroke="black" points="986.99,-107.52 995.96,-101.88 985.43,-100.69 986.99,-107.52"/>
</g>
<!-- engineer&#45;metrics.py -->
<g id="node6" class="node">
<title>engineer&#45;metrics.py</title>
<polygon fill="none" stroke="black" points="805.5,-108 669.5,-108 669.5,-72 805.5,-72 805.5,-108"/>
<text text-anchor="middle" x="737.5" y="-86.3" font-family="Helvetica,Arial,sans-serif" font-size="14.00">engineer&#45;metrics.py</text>
</g>
<!-- joinpopu&#45;income.ipynb&#45;&gt;engineer&#45;metrics.py -->
<g id="edge5" class="edge">
<title>joinpopu&#45;income.ipynb&#45;&gt;engineer&#45;metrics.py</title>
<path fill="none" stroke="black" d="M737.5,-143.7C737.5,-135.98 737.5,-126.71 737.5,-118.11"/>
<polygon fill="black" stroke="black" points="741,-118.1 737.5,-108.1 734,-118.1 741,-118.1"/>
</g>
<!-- historical_data.ipynb -->
<g id="node4" class="node">
<title>historical_data.ipynb</title>
<polygon fill="none" stroke="black" points="894.5,-252 754.5,-252 754.5,-216 894.5,-216 894.5,-252"/>
<text text-anchor="middle" x="824.5" y="-230.3" font-family="Helvetica,Arial,sans-serif" font-size="14.00">historical_data.ipynb</text>
</g>
<!-- historical_data.ipynb&#45;&gt;joinpopu&#45;income.ipynb -->
<g id="edge3" class="edge">
<title>historical_data.ipynb&#45;&gt;joinpopu&#45;income.ipynb</title>
<path fill="none" stroke="black" d="M802.99,-215.7C792.04,-206.88 778.55,-196.03 766.68,-186.47"/>
<polygon fill="black" stroke="black" points="768.74,-183.65 758.76,-180.1 764.36,-189.1 768.74,-183.65"/>
</g>
<!-- summary_notebook.ipynb -->
<g id="node14" class="node">
<title>summary_notebook.ipynb</title>
<polygon fill="none" stroke="black" points="1175,-36 1002,-36 1002,0 1175,0 1175,-36"/>
<text text-anchor="middle" x="1088.5" y="-14.3" font-family="Helvetica,Arial,sans-serif" font-size="14.00">summary_notebook.ipynb</text>
</g>
<!-- dataforQ3.py&#45;&gt;summary_notebook.ipynb -->
<g id="edge17" class="edge">
<title>dataforQ3.py&#45;&gt;summary_notebook.ipynb</title>
<path fill="none" stroke="black" d="M1054.62,-71.7C1059.86,-63.56 1066.2,-53.69 1071.98,-44.7"/>
<polygon fill="black" stroke="black" points="1075.04,-46.41 1077.5,-36.1 1069.15,-42.62 1075.04,-46.41"/>
</g>
<!-- Q3.ipynb -->
<g id="node15" class="node">
<title>Q3.ipynb</title>
<polygon fill="none" stroke="black" points="1264,-36 1193,-36 1193,0 1264,0 1264,-36"/>
<text text-anchor="middle" x="1228.5" y="-14.3" font-family="Helvetica,Arial,sans-serif" font-size="14.00">Q3.ipynb</text>
</g>
<!-- dataforQ3.py&#45;&gt;Q3.ipynb -->
<g id="edge16" class="edge">
<title>dataforQ3.py&#45;&gt;Q3.ipynb</title>
<path fill="none" stroke="black" d="M1089.26,-71.92C1114.71,-62.39 1147.18,-50.19 1183.62,-36.32"/>
<polygon fill="black" stroke="black" points="1184.87,-39.59 1192.97,-32.76 1182.38,-33.05 1184.87,-39.59"/>
</g>
<!-- question&#45;one&#45;modelling.ipynb -->
<g id="node9" class="node">
<title>question&#45;one&#45;modelling.ipynb</title>
<polygon fill="none" stroke="black" points="983.5,-36 789.5,-36 789.5,0 983.5,0 983.5,-36"/>
<text text-anchor="middle" x="886.5" y="-14.3" font-family="Helvetica,Arial,sans-serif" font-size="14.00">question&#45;one&#45;modelling.ipynb</text>
</g>
<!-- engineer&#45;metrics.py&#45;&gt;question&#45;one&#45;modelling.ipynb -->
<g id="edge10" class="edge">
<title>engineer&#45;metrics.py&#45;&gt;question&#45;one&#45;modelling.ipynb</title>
<path fill="none" stroke="black" d="M773.95,-71.88C794.14,-62.39 819.42,-50.51 840.91,-40.42"/>
<polygon fill="black" stroke="black" points="842.61,-43.49 850.17,-36.07 839.63,-37.15 842.61,-43.49"/>
</g>
<!-- question&#45;one&#45;analysis.ipynb -->
<g id="node10" class="node">
<title>question&#45;one&#45;analysis.ipynb</title>
<polygon fill="none" stroke="black" points="185,-36 0,-36 0,0 185,0 185,-36"/>
<text text-anchor="middle" x="92.5" y="-14.3" font-family="Helvetica,Arial,sans-serif" font-size="14.00">question&#45;one&#45;analysis.ipynb</text>
</g>
<!-- engineer&#45;metrics.py&#45;&gt;question&#45;one&#45;analysis.ipynb -->
<g id="edge11" class="edge">
<title>engineer&#45;metrics.py&#45;&gt;question&#45;one&#45;analysis.ipynb</title>
<path fill="none" stroke="black" d="M669.48,-83.9C568.23,-75.98 371.7,-59.29 195.19,-36.18"/>
<polygon fill="black" stroke="black" points="195.57,-32.7 185.2,-34.86 194.66,-39.64 195.57,-32.7"/>
</g>
<!-- question&#45;two&#45;modelling.ipynb -->
<g id="node11" class="node">
<title>question&#45;two&#45;modelling.ipynb</title>
<polygon fill="none" stroke="black" points="396,-36 203,-36 203,0 396,0 396,-36"/>
<text text-anchor="middle" x="299.5" y="-14.3" font-family="Helvetica,Arial,sans-serif" font-size="14.00">question&#45;two&#45;modelling.ipynb</text>
</g>
<!-- engineer&#45;metrics.py&#45;&gt;question&#45;two&#45;modelling.ipynb -->
<g id="edge12" class="edge">
<title>engineer&#45;metrics.py&#45;&gt;question&#45;two&#45;modelling.ipynb</title>
<path fill="none" stroke="black" d="M669.25,-78.19C604.17,-67.87 503.1,-51.82 406.16,-36.26"/>
<polygon fill="black" stroke="black" points="406.62,-32.79 396.19,-34.66 405.51,-39.7 406.62,-32.79"/>
</g>
<!-- question&#45;two&#45;analysis.ipynb -->
<g id="node12" class="node">
<title>question&#45;two&#45;analysis.ipynb</title>
<polygon fill="none" stroke="black" points="597,-36 414,-36 414,0 597,0 597,-36"/>
<text text-anchor="middle" x="505.5" y="-14.3" font-family="Helvetica,Arial,sans-serif" font-size="14.00">question&#45;two&#45;analysis.ipynb</text>
</g>
<!-- engineer&#45;metrics.py&#45;&gt;question&#45;two&#45;analysis.ipynb -->
<g id="edge13" class="edge">
<title>engineer&#45;metrics.py&#45;&gt;question&#45;two&#45;analysis.ipynb</title>
<path fill="none" stroke="black" d="M681.04,-71.97C648.2,-62.06 606.63,-49.51 572.19,-39.12"/>
<polygon fill="black" stroke="black" points="572.79,-35.65 562.21,-36.11 570.77,-42.35 572.79,-35.65"/>
</g>
<!-- visualise&#45;on&#45;map.ipynb -->
<g id="node13" class="node">
<title>visualise&#45;on&#45;map.ipynb</title>
<polygon fill="none" stroke="black" points="771.5,-36 615.5,-36 615.5,0 771.5,0 771.5,-36"/>
<text text-anchor="middle" x="693.5" y="-14.3" font-family="Helvetica,Arial,sans-serif" font-size="14.00">visualise&#45;on&#45;map.ipynb</text>
</g>
<!-- engineer&#45;metrics.py&#45;&gt;visualise&#45;on&#45;map.ipynb -->
<g id="edge14" class="edge">
<title>engineer&#45;metrics.py&#45;&gt;visualise&#45;on&#45;map.ipynb</title>
<path fill="none" stroke="black" d="M726.62,-71.7C721.51,-63.56 715.3,-53.69 709.66,-44.7"/>
<polygon fill="black" stroke="black" points="712.54,-42.71 704.25,-36.1 706.61,-46.43 712.54,-42.71"/>
</g>
<!-- engineer&#45;metrics.py&#45;&gt;summary_notebook.ipynb -->
<g id="edge15" class="edge">
<title>engineer&#45;metrics.py&#45;&gt;summary_notebook.ipynb</title>
<path fill="none" stroke="black" d="M805.59,-75.42C858.93,-64.78 933.76,-49.86 993.07,-38.03"/>
<polygon fill="black" stroke="black" points="994.08,-41.4 1003.2,-36.01 992.71,-34.53 994.08,-41.4"/>
</g>
<!-- Crime_Rate.ipynb -->
<g id="node7" class="node">
<title>Crime_Rate.ipynb</title>
<polygon fill="none" stroke="black" points="957,-180 832,-180 832,-144 957,-144 957,-180"/>
<text text-anchor="middle" x="894.5" y="-158.3" font-family="Helvetica,Arial,sans-serif" font-size="14.00">Crime_Rate.ipynb</text>
</g>
<!-- Crime_Rate.ipynb&#45;&gt;dataforQ3.py -->
<g id="edge6" class="edge">
<title>Crime_Rate.ipynb&#45;&gt;dataforQ3.py</title>
<path fill="none" stroke="black" d="M930.95,-143.88C951.14,-134.39 976.42,-122.51 997.91,-112.42"/>
<polygon fill="black" stroke="black" points="999.61,-115.49 1007.17,-108.07 996.63,-109.15 999.61,-115.49"/>
</g>
<!-- Crime_Rate.ipynb&#45;&gt;engineer&#45;metrics.py -->
<g id="edge7" class="edge">
<title>Crime_Rate.ipynb&#45;&gt;engineer&#45;metrics.py</title>
<path fill="none" stroke="black" d="M856.09,-143.88C834.63,-134.31 807.7,-122.3 784.93,-112.15"/>
<polygon fill="black" stroke="black" points="786.34,-108.94 775.78,-108.07 783.49,-115.34 786.34,-108.94"/>
</g>
<!-- preprocessing.ipynb -->
<g id="node8" class="node">
<title>preprocessing.ipynb</title>
<polygon fill="none" stroke="black" points="1112,-180 975,-180 975,-144 1112,-144 1112,-180"/>
<text text-anchor="middle" x="1043.5" y="-158.3" font-family="Helvetica,Arial,sans-serif" font-size="14.00">preprocessing.ipynb</text>
</g>
<!-- preprocessing.ipynb&#45;&gt;dataforQ3.py -->
<g id="edge8" class="edge">
<title>preprocessing.ipynb&#45;&gt;dataforQ3.py</title>
<path fill="none" stroke="black" d="M1043.5,-143.7C1043.5,-135.98 1043.5,-126.71 1043.5,-118.11"/>
<polygon fill="black" stroke="black" points="1047,-118.1 1043.5,-108.1 1040,-118.1 1047,-118.1"/>
</g>
<!-- preprocessing.ipynb&#45;&gt;engineer&#45;metrics.py -->
<g id="edge9" class="edge">
<title>preprocessing.ipynb&#45;&gt;engineer&#45;metrics.py</title>
<path fill="none" stroke="black" d="M974.83,-145.29C927.6,-134.49 864.78,-120.12 815.63,-108.87"/>
<polygon fill="black" stroke="black" points="816.21,-105.41 805.68,-106.6 814.65,-112.24 816.21,-105.41"/>
</g>
<!-- repo&#45;linter.py -->
<g id="node16" class="node">
<title>repo&#45;linter.py</title>
<polygon fill="none" stroke="black" points="851,-324 756,-324 756,-288 851,-288 851,-324"/>
<text text-anchor="middle" x="803.5" y="-302.3" font-family="Helvetica,Arial,sans-serif" font-size="14.00">repo&#45;linter.py</text>
</g>
</g>
</svg>
